<svg width="8" height="13" viewBox="0 0 8 13" fill="none" xmlns="http://www.w3.org/2000/svg">
<path d="M2.89356 6.432V4.576L6.54156 2.24V2.048H0.205563V0.799999H7.69356V2.848L4.04556 5.184V5.376H4.68556C5.11223 5.376 5.5229 5.44533 5.91756 5.584C6.31223 5.72267 6.6589 5.92533 6.95756 6.192C7.2669 6.45867 7.51223 6.78933 7.69356 7.184C7.88556 7.568 7.98156 8.016 7.98156 8.528V8.816C7.98156 9.296 7.88556 9.744 7.69356 10.16C7.50156 10.576 7.2349 10.9387 6.89356 11.248C6.55223 11.5467 6.1469 11.7867 5.67756 11.968C5.2189 12.1387 4.71756 12.224 4.17356 12.224C3.54423 12.224 2.9789 12.128 2.47756 11.936C1.97623 11.744 1.54956 11.4827 1.19756 11.152C0.845563 10.8107 0.573563 10.416 0.381563 9.968C0.200229 9.50933 0.109563 9.024 0.109563 8.512V7.648H1.45356V8.416C1.45356 8.82133 1.51756 9.184 1.64556 9.504C1.78423 9.81333 1.9709 10.08 2.20556 10.304C2.4509 10.5173 2.7389 10.6827 3.06956 10.8C3.40023 10.9173 3.75756 10.976 4.14156 10.976C4.49356 10.976 4.8189 10.9173 5.11756 10.8C5.4269 10.6827 5.69356 10.5227 5.91756 10.32C6.14156 10.1067 6.31756 9.86133 6.44556 9.584C6.57356 9.296 6.63756 8.992 6.63756 8.672V8.576C6.63756 7.904 6.42423 7.38133 5.99756 7.008C5.5709 6.624 5.03756 6.432 4.39756 6.432H2.89356Z" fill="#858584"/>
</svg>
