<svg width="9" height="13" viewBox="0 0 9 13" fill="none" xmlns="http://www.w3.org/2000/svg">
<path d="M0.349563 6.72V0.799999H7.35756V2.048H1.66156V6.048H1.85356C1.96023 5.83467 2.0989 5.632 2.26956 5.44C2.44023 5.23733 2.63756 5.06133 2.86156 4.912C3.09623 4.76267 3.35756 4.64533 3.64556 4.56C3.93356 4.464 4.25356 4.416 4.60556 4.416C5.11756 4.416 5.5869 4.50133 6.01356 4.672C6.4509 4.84267 6.82423 5.08267 7.13356 5.392C7.4429 5.70133 7.6829 6.07467 7.85356 6.512C8.0349 6.94933 8.12556 7.43467 8.12556 7.968V8.256C8.12556 8.78933 8.04023 9.296 7.86956 9.776C7.6989 10.2453 7.44823 10.6667 7.11756 11.04C6.7869 11.4027 6.37623 11.6907 5.88556 11.904C5.3949 12.1173 4.82956 12.224 4.18956 12.224C3.5389 12.224 2.9629 12.128 2.46156 11.936C1.96023 11.744 1.5389 11.4773 1.19756 11.136C0.856229 10.7947 0.594896 10.3947 0.413563 9.936C0.242896 9.46667 0.157562 8.96 0.157562 8.416V7.968H1.50156V8.32C1.50156 9.20533 1.7469 9.872 2.23756 10.32C2.7389 10.7573 3.38956 10.976 4.18956 10.976C4.61623 10.976 4.98956 10.9013 5.30956 10.752C5.64023 10.592 5.91223 10.384 6.12556 10.128C6.34956 9.86133 6.5149 9.55733 6.62156 9.216C6.72823 8.864 6.78156 8.50133 6.78156 8.128V8.032C6.78156 7.70133 6.7229 7.392 6.60556 7.104C6.4989 6.816 6.34423 6.56533 6.14156 6.352C5.94956 6.13867 5.70956 5.97333 5.42156 5.856C5.14423 5.728 4.84023 5.664 4.50956 5.664C4.28556 5.664 4.07756 5.696 3.88556 5.76C3.70423 5.824 3.54423 5.90933 3.40556 6.016C3.2669 6.112 3.14956 6.224 3.05356 6.352C2.96823 6.48 2.90956 6.60267 2.87756 6.72H0.349563Z" fill="#858584"/>
</svg>
