<svg width="8" height="13" viewBox="0 0 8 13" fill="none" xmlns="http://www.w3.org/2000/svg">
<path d="M6.34956 4.064C6.34956 3.37067 6.13623 2.816 5.70956 2.4C5.2829 1.97333 4.6909 1.76 3.93356 1.76C3.5709 1.76 3.2349 1.824 2.92556 1.952C2.6269 2.08 2.36556 2.26667 2.14156 2.512C1.92823 2.74667 1.75756 3.02933 1.62956 3.36C1.51223 3.69067 1.45356 4.05333 1.45356 4.448V6.112H1.64556C1.90156 5.64267 2.26423 5.27467 2.73356 5.008C3.21356 4.74133 3.7469 4.608 4.33356 4.608C4.84556 4.608 5.32023 4.69333 5.75756 4.864C6.1949 5.024 6.56823 5.264 6.87756 5.584C7.19756 5.904 7.4429 6.29333 7.61356 6.752C7.7949 7.2 7.88556 7.712 7.88556 8.288V8.48C7.88556 9.03467 7.78423 9.54133 7.58156 10C7.38956 10.4587 7.11756 10.8533 6.76556 11.184C6.42423 11.5147 6.01356 11.7707 5.53356 11.952C5.06423 12.1333 4.55223 12.224 3.99756 12.224C3.4429 12.224 2.92556 12.1333 2.44556 11.952C1.97623 11.7707 1.56556 11.52 1.21356 11.2C0.872229 10.8693 0.600229 10.48 0.397563 10.032C0.205563 9.57333 0.109563 9.072 0.109563 8.528V4.448C0.109563 3.86133 0.210896 3.328 0.413563 2.848C0.616229 2.368 0.893563 1.96267 1.24556 1.632C1.59756 1.29067 2.0029 1.02933 2.46156 0.848C2.9309 0.666666 3.43223 0.575999 3.96556 0.575999C4.4989 0.575999 4.9949 0.655999 5.45356 0.815999C5.91223 0.976 6.3069 1.21067 6.63756 1.52C6.96823 1.81867 7.22423 2.18667 7.40556 2.624C7.59756 3.05067 7.69356 3.53067 7.69356 4.064H6.34956ZM3.99756 11.04C4.38156 11.04 4.72823 10.9813 5.03756 10.864C5.35756 10.736 5.62956 10.56 5.85356 10.336C6.07756 10.112 6.24823 9.84533 6.36556 9.536C6.4829 9.22667 6.54156 8.88533 6.54156 8.512V8.32C6.54156 7.94667 6.47756 7.60533 6.34956 7.296C6.22156 6.98667 6.04556 6.72 5.82156 6.496C5.59756 6.272 5.32556 6.10133 5.00556 5.984C4.69623 5.856 4.36023 5.792 3.99756 5.792C3.6349 5.792 3.2989 5.856 2.98956 5.984C2.68023 6.112 2.40823 6.288 2.17356 6.512C1.94956 6.736 1.77356 6.99733 1.64556 7.296C1.51756 7.59467 1.45356 7.91467 1.45356 8.256V8.56C1.45356 8.912 1.51223 9.24267 1.62956 9.552C1.7469 9.85067 1.91756 10.112 2.14156 10.336C2.36556 10.56 2.63223 10.736 2.94156 10.864C3.26156 10.9813 3.61356 11.04 3.99756 11.04Z" fill="#858584"/>
</svg>
