<svg width="8" height="13" viewBox="0 0 8 13" fill="none" xmlns="http://www.w3.org/2000/svg">
<path d="M3.85356 12.224C3.28823 12.224 2.77623 12.1493 2.31756 12C1.8589 11.84 1.46423 11.6267 1.13356 11.36C0.802896 11.0827 0.546896 10.7627 0.365563 10.4C0.194896 10.0267 0.109563 9.62133 0.109563 9.184V8.992C0.109563 8.608 0.168229 8.26667 0.285563 7.968C0.402896 7.66933 0.557563 7.408 0.749563 7.184C0.941563 6.96 1.16023 6.77333 1.40556 6.624C1.66156 6.47467 1.9229 6.36267 2.18956 6.288V6.096C1.94423 6.02133 1.7149 5.90933 1.50156 5.76C1.28823 5.61067 1.09623 5.43467 0.925563 5.232C0.765563 5.02933 0.637563 4.8 0.541563 4.544C0.445563 4.27733 0.397563 3.98933 0.397563 3.68V3.488C0.397563 3.06133 0.482896 2.672 0.653563 2.32C0.824229 1.95733 1.06423 1.648 1.37356 1.392C1.69356 1.136 2.0669 0.938666 2.49356 0.799999C2.9309 0.650666 3.41623 0.575999 3.94956 0.575999H4.04556C4.56823 0.575999 5.04823 0.650666 5.48556 0.799999C5.9229 0.938666 6.29623 1.136 6.60556 1.392C6.92556 1.648 7.1709 1.95733 7.34156 2.32C7.51223 2.672 7.59756 3.06133 7.59756 3.488V3.68C7.59756 3.98933 7.54956 4.27733 7.45356 4.544C7.35756 4.8 7.22423 5.02933 7.05356 5.232C6.89356 5.43467 6.70156 5.61067 6.47756 5.76C6.26423 5.90933 6.04023 6.02133 5.80556 6.096V6.288C6.07223 6.36267 6.32823 6.47467 6.57356 6.624C6.82956 6.77333 7.05356 6.96 7.24556 7.184C7.43756 7.408 7.59223 7.66933 7.70956 7.968C7.8269 8.26667 7.88556 8.608 7.88556 8.992V9.184C7.88556 9.62133 7.7949 10.0267 7.61356 10.4C7.4429 10.7627 7.19223 11.0827 6.86156 11.36C6.5309 11.6267 6.13623 11.84 5.67756 12C5.2189 12.1493 4.7069 12.224 4.14156 12.224H3.85356ZM4.09356 11.008C4.8189 11.008 5.40556 10.8213 5.85356 10.448C6.31223 10.0747 6.54156 9.58933 6.54156 8.992V8.896C6.54156 8.23467 6.3069 7.72267 5.83756 7.36C5.3789 6.99733 4.78156 6.816 4.04556 6.816H3.94956C3.21356 6.816 2.6109 6.99733 2.14156 7.36C1.6829 7.72267 1.45356 8.23467 1.45356 8.896V8.992C1.45356 9.58933 1.67756 10.0747 2.12556 10.448C2.58423 10.8213 3.17623 11.008 3.90156 11.008H4.09356ZM3.99756 5.568C4.66956 5.568 5.21356 5.392 5.62956 5.04C6.04556 4.688 6.25356 4.24533 6.25356 3.712V3.616C6.25356 3.072 6.04556 2.63467 5.62956 2.304C5.22423 1.96267 4.68023 1.792 3.99756 1.792C3.3149 1.792 2.76556 1.96267 2.34956 2.304C1.94423 2.63467 1.74156 3.072 1.74156 3.616V3.712C1.74156 4.24533 1.94956 4.688 2.36556 5.04C2.78156 5.392 3.32556 5.568 3.99756 5.568Z" fill="#858584"/>
</svg>
