<svg width="8" height="13" viewBox="0 0 8 13" fill="none" xmlns="http://www.w3.org/2000/svg">
<path d="M1.64556 8.736C1.64556 9.42933 1.8589 9.98933 2.28556 10.416C2.71223 10.832 3.30423 11.04 4.06156 11.04C4.42423 11.04 4.7549 10.976 5.05356 10.848C5.3629 10.72 5.62423 10.5387 5.83756 10.304C6.06156 10.0587 6.23223 9.776 6.34956 9.456C6.47756 9.12533 6.54156 8.75733 6.54156 8.352V6.688H6.34956C6.10423 7.15733 5.75223 7.52533 5.29356 7.792C4.8349 8.05867 4.30156 8.192 3.69356 8.192C3.1709 8.192 2.6909 8.112 2.25356 7.952C1.81623 7.792 1.43756 7.55733 1.11756 7.248C0.797563 6.928 0.546896 6.544 0.365563 6.096C0.194896 5.648 0.109563 5.136 0.109563 4.56V4.368C0.109563 3.81333 0.205563 3.30667 0.397563 2.848C0.589563 2.37867 0.856229 1.97867 1.19756 1.648C1.54956 1.30667 1.96023 1.04533 2.42956 0.863999C2.90956 0.671999 3.43223 0.575999 3.99756 0.575999C4.5629 0.575999 5.08023 0.671999 5.54956 0.863999C6.02956 1.04533 6.44023 1.30133 6.78156 1.632C7.13356 1.96267 7.40556 2.35733 7.59756 2.816C7.78956 3.27467 7.88556 3.776 7.88556 4.32V8.352C7.88556 8.94933 7.78423 9.488 7.58156 9.968C7.38956 10.4373 7.11756 10.8427 6.76556 11.184C6.42423 11.5147 6.0189 11.7707 5.54956 11.952C5.08023 12.1333 4.57356 12.224 4.02956 12.224C3.48556 12.224 2.98423 12.144 2.52556 11.984C2.0669 11.824 1.67223 11.5947 1.34156 11.296C1.0109 10.9867 0.754896 10.6187 0.573563 10.192C0.392229 9.75467 0.301563 9.26933 0.301563 8.736H1.64556ZM3.99756 1.76C3.61356 1.76 3.26156 1.824 2.94156 1.952C2.63223 2.08 2.36556 2.26133 2.14156 2.496C1.91756 2.73067 1.7469 3.008 1.62956 3.328C1.51223 3.63733 1.45356 3.97333 1.45356 4.336V4.528C1.45356 4.90133 1.51756 5.24267 1.64556 5.552C1.77356 5.85067 1.94956 6.112 2.17356 6.336C2.39756 6.54933 2.66423 6.71467 2.97356 6.832C3.2829 6.94933 3.62423 7.008 3.99756 7.008C4.36023 7.008 4.69623 6.94933 5.00556 6.832C5.3149 6.704 5.58156 6.53333 5.80556 6.32C6.04023 6.10667 6.22156 5.85067 6.34956 5.552C6.47756 5.25333 6.54156 4.93333 6.54156 4.592V4.288C6.54156 3.936 6.4829 3.60533 6.36556 3.296C6.24823 2.98667 6.07756 2.72 5.85356 2.496C5.62956 2.26133 5.35756 2.08 5.03756 1.952C4.72823 1.824 4.38156 1.76 3.99756 1.76Z" fill="#858584"/>
</svg>
