<svg width="18" height="13" viewBox="0 0 18 13" fill="none" xmlns="http://www.w3.org/2000/svg">
<path d="M3.50713 10.752V1.392H3.31512L1.47513 5.6H0.147125V5.504L2.24313 0.799999H4.85113V10.752H8.01912V12H0.339125V10.752H3.50713ZM9.96 5.152C9.96 3.70133 10.3067 2.576 11 1.776C11.6933 0.975999 12.6587 0.575999 13.896 0.575999C15.1333 0.575999 16.0987 0.975999 16.792 1.776C17.4853 2.576 17.832 3.70133 17.832 5.152V7.648C17.832 9.14133 17.4853 10.2773 16.792 11.056C16.0987 11.8347 15.1333 12.224 13.896 12.224C12.6587 12.224 11.6933 11.8347 11 11.056C10.3067 10.2773 9.96 9.14133 9.96 7.648V5.152ZM13.896 11.008C14.76 11.008 15.4053 10.7093 15.832 10.112C16.2693 9.504 16.488 8.65067 16.488 7.552V5.248C16.488 4.736 16.4347 4.272 16.328 3.856C16.2213 3.42933 16.056 3.06667 15.832 2.768C15.6187 2.45867 15.3467 2.21867 15.016 2.048C14.696 1.87733 14.3227 1.792 13.896 1.792C13.4587 1.792 13.08 1.87733 12.76 2.048C12.44 2.21867 12.168 2.45867 11.944 2.768C11.7307 3.06667 11.5707 3.42933 11.464 3.856C11.3573 4.272 11.304 4.736 11.304 5.248V7.552C11.304 8.65067 11.5173 9.504 11.944 10.112C12.3813 10.7093 13.032 11.008 13.896 11.008ZM12.872 6.4C12.872 6.12267 12.9733 5.88267 13.176 5.68C13.3787 5.47733 13.6187 5.376 13.896 5.376C14.1733 5.376 14.4133 5.47733 14.616 5.68C14.8187 5.88267 14.92 6.12267 14.92 6.4C14.92 6.67733 14.8187 6.91733 14.616 7.12C14.4133 7.32267 14.1733 7.424 13.896 7.424C13.6187 7.424 13.3787 7.32267 13.176 7.12C12.9733 6.91733 12.872 6.67733 12.872 6.4Z" fill="#858584"/>
</svg>
