<svg width="18" height="12" viewBox="0 0 18 12" fill="none" xmlns="http://www.w3.org/2000/svg">
<path d="M3.50713 10.752V1.392H3.31512L1.47513 5.6H0.147125V5.504L2.24313 0.799999H4.85113V10.752H8.01912V12H0.339125V10.752H3.50713ZM17.704 10.752V12H10.12V10.08C10.12 9.568 10.2053 9.12533 10.376 8.752C10.5467 8.368 10.7867 8.04267 11.096 7.776C11.416 7.49867 11.8 7.26933 12.248 7.088C12.696 6.90667 13.2027 6.752 13.768 6.624C14.7173 6.41067 15.4 6.10667 15.816 5.712C16.2427 5.31733 16.456 4.832 16.456 4.256V4.16C16.456 3.872 16.408 3.58933 16.312 3.312C16.216 3.03467 16.0667 2.784 15.864 2.56C15.6613 2.336 15.4 2.16 15.08 2.032C14.7707 1.89333 14.3973 1.824 13.96 1.824C13.1387 1.824 12.4987 2.07467 12.04 2.576C11.592 3.07733 11.368 3.744 11.368 4.576V5.28H10.024V4.48C10.024 3.968 10.1093 3.47733 10.28 3.008C10.4507 2.53867 10.7013 2.12267 11.032 1.76C11.3627 1.39733 11.7733 1.10933 12.264 0.896C12.7547 0.682666 13.32 0.575999 13.96 0.575999C14.6107 0.575999 15.176 0.677333 15.656 0.879999C16.136 1.072 16.536 1.33333 16.856 1.664C17.176 1.984 17.4107 2.352 17.56 2.768C17.72 3.17333 17.8 3.58933 17.8 4.016V4.304C17.8 5.15733 17.5333 5.888 17 6.496C16.4667 7.09333 15.6133 7.52 14.44 7.776C13.416 8 12.664 8.29867 12.184 8.672C11.704 9.03467 11.464 9.568 11.464 10.272V10.752H17.704Z" fill="#858584"/>
</svg>
